#!OML:ASF X:\für Bonn\!DataBase\2005_08_10_Bjorn_Final\c3d\bjorn.ASF
:FULLY-SPECIFIED
:DEGREES
85
root -1.08159 18.5042 18.748 -175.795 1.02184 -540.103
lowerback 40.3496 -5.39373 -2.84389
upperback 24.2705 3.50557 0.711482
thorax 7.57284 5.29037 1.77381
lowerneck 5.65306 -7.66923 1.58896
upperneck 3.70798 -11.3471 17.715
head 1.10211 -5.73694 5.08407
rclavicle -5.56597e-015 -1.2921e-014
rhumerus -4.29107 -6.49919 -75.6664
rradius 31.5529
rwrist -11.6825
rhand -10.4626 2.23903
rfingers 7.12502
rthumb 15.5382 -27.1567
lclavicle -5.56597e-015 -1.2921e-014
lhumerus 5.5051 -15.3853 79.0334
lradius 69.5365
lwrist -5.94197
lhand -26.162 -369.369
lfingers 7.12502
lthumb 0.38924 20.6099
rfemur -31.4646 -12.3687 9.34048
rtibia 39.9817
rfoot -9.88164 0.831623
rtoes -20.2468
lfemur -31.1655 7.5011 -17.2421
ltibia 45.4901
lfoot -13.4518 9.68546
ltoes -14.8423
86
root -1.09991 18.4441 18.7691 -175.819 1.61794 -540.249
lowerback 40.7628 -5.60521 -2.41973
upperback 24.398 3.4888 0.758941
thorax 7.60145 5.35526 1.60772
lowerneck 5.60446 -7.81751 2.03389
upperneck 3.11301 -11.36 17.5406
head 0.903324 -5.76262 4.97432
rclavicle -4.77083e-015 -8.34896e-015
rhumerus -3.29004 -6.77093 -75.2791
rradius 31.1163
rwrist -10.9575
rhand -10.5502 2.33651
rfingers 7.12502
rthumb 15.4538 -27.0658
lclavicle -4.77083e-015 -8.34896e-015
lhumerus 5.4823 -15.5666 79.1051
lradius 69.6649
lwrist -5.98456
lhand -25.2131 -369.766
lfingers 7.12502
lthumb 1.30575 20.21
rfemur -32.1593 -12.2852 9.20672
rtibia 40.7809
rfoot -9.80135 1.61716
rtoes -19.4386
lfemur -31.7023 7.47242 -17.4083
ltibia 46.5679
lfoot -14.0109 10.2106
ltoes -15.0164
87
root -1.11686 18.3805 18.7891 -175.836 2.21806 -540.427
lowerback 41.1116 -5.80919 -2.04316
upperback 24.5439 3.46836 0.815824
thorax 7.67227 5.41001 1.48359
lowerneck 5.6701 -8.50587 2.36779
upperneck 2.59174 -11.1249 17.3274
head 0.685036 -5.54009 4.88213
rclavicle -1.90833e-014 -1.25234e-014
rhumerus -2.24768 -7.07543 -74.8826
rradius 30.6493
rwrist -10.2204
rhand -10.6915 2.56532
rfingers 7.12502
rthumb 15.3176 -26.8474
lclavicle -1.90833e-014 -1.25234e-014
lhumerus 5.43738 -15.7357 79.1509
lradius 69.8164
lwrist -5.93045
lhand -24.2983 -370.23
lfingers 7.12502
lthumb 2.18922 19.7381
rfemur -32.9109 -12.1811 9.03931
rtibia 41.6728
rfoot -9.73303 2.40068
rtoes -18.5648
lfemur -32.2525 7.36976 -17.5938
ltibia 47.6743
lfoot -14.6117 10.7957
ltoes -15.1374
88
root -1.1339 18.3132 18.8086 -175.838 2.80659 -540.606
lowerback 41.407 -6.04921 -1.65326
upperback 24.7149 3.41813 0.847706
thorax 7.7919 5.45568 1.34143
lowerneck 5.6852 -8.60072 2.865
upperneck 1.87696 -11.1409 17.0889
head 0.433786 -5.608 4.75361
rclavicle -3.57812e-014 -3.4191e-014
rhumerus -1.13573 -7.43112 -74.5342
rradius 30.1955
rwrist -9.39867
rhand -10.8028 2.80759
rfingers 7.12502
rthumb 15.2105 -26.6133
lclavicle -3.57812e-014 -3.4191e-014
lhumerus 5.40081 -15.8356 79.1715
lradius 69.9762
lwrist -5.91905
lhand -23.4466 -370.736
lfingers 7.12502
lthumb 3.01178 19.2227
rfemur -33.7328 -12.016 8.85649
rtibia 42.6578
rfoot -9.74718 3.0047
rtoes -18.0583
lfemur -32.8471 7.21931 -17.7827
ltibia 48.8152
lfoot -15.2287 11.4087
ltoes -15.1993
89
root -1.15014 18.2402 18.8273 -175.845 3.40412 -540.801
lowerback 41.7051 -6.2742 -1.32689
upperback 24.8576 3.3395 0.911835
thorax 7.87681 5.4682 1.27044
lowerneck 5.83301 -8.66938 3.36028
upperneck 1.18174 -11.103 16.3699
head 0.206957 -5.65438 5.00185
rclavicle 1.59028e-015 -7.15625e-015
rhumerus -0.0546593 -7.68767 -74.1466
rradius 29.7486
rwrist -8.60013
rhand -10.9163 3.08207
rfingers 7.12502
rthumb 15.1011 -26.3471
lclavicle 1.59028e-015 -7.15625e-015
lhumerus 5.24016 -15.8492 79.2407
lradius 70.1757
lwrist -5.90109
lhand -22.7026 -371.164
lfingers 7.12502
lthumb 3.73028 18.7829
rfemur -34.6002 -11.784 8.65025
rtibia 43.7322
rfoot -9.86088 3.43657
rtoes -18.079
lfemur -33.468 7.1241 -17.988
ltibia 50.0034
lfoot -15.8768 11.9879
ltoes -15.2393
90
root -1.16452 18.1628 18.8445 -175.845 4.01058 -541.032
lowerback 41.99 -6.48226 -1.07626
upperback 24.9916 3.2427 0.989653
thorax 7.95557 5.4558 1.25762
lowerneck 5.89154 -8.7081 3.6632
upperneck 0.618801 -11.0741 16.1159
head -0.0261334 -5.68778 4.87554
rclavicle 3.97569e-014 3.83654e-014
rhumerus 1.01092 -7.82532 -73.7191
rradius 29.3607
rwrist -7.91845
rhand -11.0249 3.24967
rfingers 7.12502
rthumb 14.9965 -26.1873
lclavicle 3.97569e-014 3.83654e-014
lhumerus 5.03605 -15.8107 79.3127
lradius 70.4197
lwrist -5.7617
lhand -22.0722 -371.57
lfingers 7.12502
lthumb 4.33907 18.3653
rfemur -35.5325 -11.4965 8.39209
rtibia 44.8953
rfoot -10.0178 3.84258
rtoes -17.8632
lfemur -34.1162 7.05283 -18.2307
ltibia 51.2267
lfoot -16.5718 12.5034
ltoes -15.1747
91
root -1.17913 18.0806 18.8605 -175.868 4.5894 -541.261
lowerback 42.3193 -6.71135 -0.810323
upperback 25.0846 3.10862 1.069
thorax 7.97495 5.42232 1.2428
lowerneck 5.99607 -8.73252 3.94061
upperneck 0.115106 -11.0283 15.8442
head -0.247642 -5.7089 4.75115
rclavicle -6.83819e-014 -4.79071e-014
rhumerus 2.0215 -7.98625 -73.3074
rradius 28.9979
rwrist -7.17798
rhand -11.046 3.37973
rfingers 7.12502
rthumb 14.9762 -26.0588
lclavicle -6.83819e-014 -4.79071e-014
lhumerus 4.74294 -15.7527 79.3893
lradius 70.692
lwrist -5.59588
lhand -21.5747 -372.035
lfingers 7.12502
lthumb 4.81943 17.8898
rfemur -36.4851 -11.3179 8.1489
rtibia 46.1257
rfoot -10.2355 4.30551
rtoes -18.165
lfemur -34.7696 6.9763 -18.4679
ltibia 52.4939
lfoot -17.2863 12.9947
ltoes -15.0461
92
root -1.19185 17.9954 18.8757 -175.885 5.17115 -541.508
lowerback 42.6864 -6.9144 -0.540284
upperback 25.1128 2.97754 1.13792
thorax 7.90899 5.38296 1.20468
lowerneck 6.14088 -8.77023 4.25301
upperneck -0.328949 -10.9965 15.592
head -0.455476 -5.73276 4.63079
rclavicle 9.54166e-015 1.98785e-016
rhumerus 2.95688 -8.17211 -72.9282
rradius 28.623
rwrist -6.49285
rhand -11.1598 3.57263
rfingers 7.12502
rthumb 14.8665 -25.874
lclavicle 9.54166e-015 1.98785e-016
lhumerus 4.38698 -15.8035 79.3965
lradius 70.989
lwrist -5.33823
lhand -21.2436 -372.485
lfingers 7.12502
lthumb 5.13911 17.4326
rfemur -37.4927 -11.2384 7.90958
rtibia 47.4217
rfoot -10.4507 4.86152
rtoes -18.4279
lfemur -35.452 6.93165 -18.7294
ltibia 53.7882
lfoot -17.9985 13.4816
ltoes -14.9961
93
root -1.20411 17.9054 18.8891 -175.899 5.74005 -541.741
lowerback 43.0567 -7.11694 -0.268352
upperback 25.1158 2.83439 1.21971
thorax 7.81297 5.33152 1.1806
lowerneck 6.33755 -8.79883 4.57825
upperneck -0.780217 -10.9434 15.3213
head -0.677571 -5.74736 4.5075
rclavicle -1.43125e-014 -2.60408e-014
rhumerus 3.8577 -8.43255 -72.5716
rradius 28.2621
rwrist -5.71375
rhand -11.2412 3.80177
rfingers 7.12502
rthumb 14.7881 -25.6506
lclavicle -1.43125e-014 -2.60408e-014
lhumerus 3.98819 -15.8696 79.3772
lradius 71.2749
lwrist -5.14491
lhand -21.0462 -372.971
lfingers 7.12502
lthumb 5.32978 16.9421
rfemur -38.531 -11.1475 7.68173
rtibia 48.7619
rfoot -10.6951 5.39029
rtoes -18.7257
lfemur -36.1613 6.91186 -18.9827
ltibia 55.1208
lfoot -18.6925 13.9754
ltoes -15.1566
94
root -1.215 17.8115 18.9015 -175.944 6.30064 -541.974
lowerback 43.4629 -7.30845 0.022622
upperback 25.0905 2.71088 1.2945
thorax 7.67647 5.29218 1.13069
lowerneck 6.62254 -8.85036 5.06932
upperneck -1.30047 -10.8873 14.9786
head -0.951229 -5.76731 4.34185
rclavicle -4.6118e-014 1.13307e-014
rhumerus 4.68556 -8.799 -72.2547
rradius 27.9445
rwrist -5.01469
rhand -11.2523 4.03508
rfingers 7.12502
rthumb 14.7775 -25.4181
lclavicle -4.6118e-014 1.13307e-014
lhumerus 3.63338 -16.047 79.281
lradius 71.5114
lwrist -5.02083
lhand -20.9416 -373.432
lfingers 7.12502
lthumb 5.43074 16.4783
rfemur -39.5665 -11.0991 7.46341
rtibia 50.1425
rfoot -10.9814 5.92253
rtoes -19.2196
lfemur -36.8531 6.91102 -19.2359
ltibia 56.4744
lfoot -19.3684 14.4736
ltoes -15.2615
95
root -1.22506 17.7154 18.9126 -175.972 6.83282 -542.209
lowerback 43.8069 -7.51826 0.343141
upperback 25.1008 2.59662 1.361
thorax 7.6005 5.26675 1.06308
lowerneck 6.88343 -8.90437 5.68317
upperneck -1.92459 -10.8143 14.5888
head -1.26508 -5.78467 4.14596
rclavicle 6.36111e-014 9.14409e-015
rhumerus 5.53068 -9.29362 -71.9624
rradius 27.6914
rwrist -4.39382
rhand -11.2646 4.34182
rfingers 7.12502
rthumb 14.7656 -25.1122
lclavicle 6.36111e-014 9.14409e-015
lhumerus 3.43479 -16.3153 79.0892
lradius 71.6845
lwrist -4.95816
lhand -20.988 -373.877
lfingers 7.12502
lthumb 5.38589 16.0347
rfemur -40.627 -11.0415 7.23241
rtibia 51.5386
rfoot -11.2616 6.43671
rtoes -19.6753
lfemur -37.5827 6.92732 -19.4983
ltibia 57.8468
lfoot -20.0291 14.9673
ltoes -15.6279
96
root -1.23319 17.6168 18.9217 -176.02 7.33585 -542.446
lowerback 44.1323 -7.74774 0.64455
upperback 25.1532 2.48096 1.4361
thorax 7.58062 5.24472 1.0226
lowerneck 7.00668 -8.94385 6.26804
upperneck -2.48279 -10.7479 14.2253
head -1.52888 -5.79571 3.95621
rclavicle -7.79236e-014 -5.10877e-014
rhumerus 6.46686 -9.89312 -71.7093
rradius 27.432
rwrist -3.77644
rhand -11.1902 4.67404
rfingers 7.12502
rthumb 14.8373 -24.7747
lclavicle -7.79236e-014 -5.10877e-014
lhumerus 3.36441 -16.5425 78.8934
lradius 71.8077
lwrist -5.02727
lhand -21.1402 -374.299
lfingers 7.12502
lthumb 5.23899 15.6158
rfemur -41.6651 -11.0219 7.0041
rtibia 52.9455
rfoot -11.5621 6.95301
rtoes -19.987
lfemur -38.2949 6.9571 -19.7626
ltibia 59.2161
lfoot -20.633 15.4656
ltoes -16.1164
97
root -1.23923 17.5178 18.9278 -176.063 7.8132 -542.666
lowerback 44.4369 -7.97614 0.893894
upperback 25.2185 2.35073 1.55233
thorax 7.58059 5.20386 1.05995
lowerneck 7.08713 -8.9564 6.8357
upperneck -3.01821 -10.66 13.7857
head -1.78173 -5.79121 3.7419
rclavicle -6.36111e-014 -2.76311e-014
rhumerus 7.46632 -10.4094 -71.4274
rradius 27.156
rwrist -3.26784
rhand -11.168 5.03821
rfingers 7.12502
rthumb 14.8586 -24.409
lclavicle -6.36111e-014 -2.76311e-014
lhumerus 3.36147 -16.6918 78.6805
lradius 71.8838
lwrist -5.24439
lhand -21.4026 -374.668
lfingers 7.12502
lthumb 4.98566 15.2534
rfemur -42.688 -11.0275 6.79493
rtibia 54.3443
rfoot -11.8642 7.48114
rtoes -20.1916
lfemur -39.0039 6.98341 -19.9939
ltibia 60.5859
lfoot -21.3014 15.8461
ltoes -16.2529
98
root -1.2448 17.4179 18.9316 -176.098 8.28449 -542.869
lowerback 44.7116 -8.20339 1.12962
upperback 25.2888 2.21442 1.69202
thorax 7.59388 5.15398 1.13353
lowerneck 7.14614 -8.95428 7.36978
upperneck -3.50297 -10.5672 13.3202
head -2.01359 -5.77862 3.52305
rclavicle -1.33583e-013 -5.20816e-014
rhumerus 8.49843 -10.9608 -71.1529
rradius 26.8471
rwrist -2.71999
rhand -11.107 5.46651
rfingers 7.12502
rthumb 14.9174 -23.9763
lclavicle -1.33583e-013 -5.20816e-014
lhumerus 3.35388 -16.7746 78.505
lradius 71.9626
lwrist -5.6047
lhand -21.7759 -374.988
lfingers 7.12502
lthumb 4.6252 14.9412
rfemur -43.7174 -11.0633 6.61579
rtibia 55.7413
rfoot -12.1906 7.98613
rtoes -20.6583
lfemur -39.7072 7.01228 -20.2071
ltibia 61.9479
lfoot -21.9845 16.2152
ltoes -16.2236
99
root -1.25055 17.3154 18.9342 -176.146 8.72019 -543.073
lowerback 44.9692 -8.4455 1.40679
upperback 25.3468 2.0737 1.84543
thorax 7.59732 5.10494 1.20275
lowerneck 7.21837 -8.96208 7.91618
upperneck -3.94263 -10.4924 12.8277
head -2.23449 -5.77135 3.29486
rclavicle -4.6118e-014 -2.92213e-014
rhumerus 9.43983 -11.4748 -70.7887
rradius 26.5738
rwrist -2.32451
rhand -11.1101 5.90668
rfingers 7.12502
rthumb 14.9145 -23.5364
lclavicle -4.6118e-014 -2.92213e-014
lhumerus 3.36235 -16.8915 78.3247
lradius 72.0443
lwrist -5.9894
lhand -22.1292 -375.239
lfingers 7.12502
lthumb 4.28402 14.6973
rfemur -44.7158 -11.12 6.42705
rtibia 57.1268
rfoot -12.4989 8.50134
rtoes -20.935
lfemur -40.4103 7.05786 -20.4282
ltibia 63.3173
lfoot -22.6302 16.5612
ltoes -16.4162
